<svg width="45" height="44" viewBox="0 0 45 44" fill="none" xmlns="http://www.w3.org/2000/svg">
<path d="M6.73562 35.3008C11.5446 32.583 16.9762 31.1586 22.5 31.1667C28.2292 31.1667 33.6077 32.6677 38.2644 35.3008M29.375 17.4167C29.375 19.24 28.6507 20.9887 27.3614 22.278C26.072 23.5673 24.3234 24.2917 22.5 24.2917C20.6766 24.2917 18.928 23.5673 17.6386 22.278C16.3493 20.9887 15.625 19.24 15.625 17.4167C15.625 15.5933 16.3493 13.8446 17.6386 12.5553C18.928 11.266 20.6766 10.5417 22.5 10.5417C24.3234 10.5417 26.072 11.266 27.3614 12.5553C28.6507 13.8446 29.375 15.5933 29.375 17.4167ZM43.125 22C43.125 24.7085 42.5915 27.3905 41.555 29.8928C40.5185 32.3952 38.9993 34.6689 37.0841 36.5841C35.1689 38.4993 32.8952 40.0185 30.3928 41.055C27.8905 42.0915 25.2085 42.625 22.5 42.625C19.7915 42.625 17.1095 42.0915 14.6072 41.055C12.1048 40.0185 9.83113 38.4993 7.91592 36.5841C6.00071 34.6689 4.48149 32.3952 3.44498 29.8928C2.40848 27.3905 1.875 24.7085 1.875 22C1.875 16.5299 4.04798 11.2839 7.91592 7.41592C11.7839 3.54799 17.0299 1.375 22.5 1.375C27.9701 1.375 33.2161 3.54799 37.0841 7.41592C40.952 11.2839 43.125 16.5299 43.125 22Z" stroke="#6D6D6D" stroke-width="2" stroke-linecap="round" stroke-linejoin="round"/>
</svg>
